# xmcd
#
# Track frame offsets:
#	150
#	14558
#	34317
#	51898
#	73617
#	84966
#	111547
#	130383
#	149308
#
# Disc length: 2286 seconds
#
# Revision: 0
# Processed by: cddbd v1.5.2PL0 Copyright (c) Steve Scherf et al.
# Submitted via: audiograbber 1.83.01
#
DISCID=8308ec09
DTITLE=John Mayall - Road Show
DYEAR=1900
DGENRE=
TTITLE0=Why Worry
TTITLE1=Road Show
TTITLE2=Mama Talk To Your Daugther
TTITLE3=A Big Man
TTITLE4=Lost And Gone
TTITLE5=Mexico City
TTITLE6=John Lee Boogie
TTITLE7=Reaching For A  Mountain
TTITLE8=Baby What You Want Me To Do
EXTD=
EXTT0=
EXTT1=
EXTT2=
EXTT3=
EXTT4=
EXTT5=
EXTT6=
EXTT7=
EXTT8=
PLAYORDER=
